<?xml version="1.0"?>
<svg xmlns="http://www.w3.org/2000/svg" xmlns:xlink="http://www.w3.org/1999/xlink" width="20370mm" height="9870mm" viewBox="0 0 20370 9870">
    <g lc:layername="0" lc:is_locked="false" lc:is_construction="false" fill="none" stroke="black" stroke-width="1">
        <line x1="20370" y1="9870" x2="20370" y2="370"/>
        <line x1="20370" y1="370" x2="370" y2="370"/>
        <line x1="620" y1="620" x2="20120" y2="620"/>
        <line x1="20120" y1="620" x2="20120" y2="9620"/>
        <line x1="620" y1="4020" x2="2620" y2="4020"/>
        <line x1="2620" y1="4020" x2="2620" y2="6020"/>
        <line x1="2620" y1="6020" x2="620" y2="6020"/>
        <line x1="2570" y1="6270" x2="620" y2="6270"/>
        <line x1="620" y1="6270" x2="370" y2="6270"/>
        <line x1="20120" y1="9620" x2="2820" y2="9620"/>
        <line x1="2570" y1="6270" x2="2570" y2="9870"/>
        <line x1="2570" y1="9870" x2="20370" y2="9870"/>
        <line x1="370" y1="370" x2="370" y2="6270"/>
        <line x1="620" y1="620" x2="620" y2="3820"/>
        <line x1="620" y1="4020" x2="620" y2="6020"/>
        <line x1="2820" y1="4020" x2="3820" y2="4020"/>
        <line x1="3820" y1="4020" x2="3970" y2="4020"/>
        <line x1="3970" y1="4020" x2="3970" y2="3220"/>
        <line x1="3970" y1="3220" x2="6120" y2="3220"/>
        <line x1="6120" y1="3220" x2="6120" y2="4020"/>
        <line x1="6270" y1="3070" x2="3970" y2="3070"/>
        <line x1="2820" y1="3820" x2="3820" y2="3820"/>
        <line x1="2320" y1="3820" x2="2320" y2="3220"/>
        <line x1="2320" y1="3220" x2="2820" y2="3220"/>
        <line x1="2620" y1="3070" x2="2170" y2="3070"/>
        <line x1="2170" y1="3070" x2="2170" y2="3820"/>
        <line x1="2170" y1="3820" x2="620" y2="3820"/>
        <line x1="2320" y1="3820" x2="2820" y2="3820"/>
        <line x1="2820" y1="4020" x2="2820" y2="9620"/>
        <line x1="2620" y1="3070" x2="2620" y2="620"/>
        <line x1="2820" y1="5320" x2="5320" y2="5320"/>
        <line x1="5320" y1="5320" x2="5320" y2="5520"/>
        <line x1="5320" y1="5520" x2="2820" y2="5520"/>
        <line x1="6120" y1="4020" x2="20120" y2="4020"/>
        <line x1="7420" y1="620" x2="7420" y2="3820"/>
        <line x1="6270" y1="3070" x2="6270" y2="3820"/>
        <line x1="6270" y1="3820" x2="20120" y2="3820"/>
        <line x1="7270" y1="3820" x2="7270" y2="620"/>
        <line x1="12320" y1="620" x2="12320" y2="3820"/>
        <line x1="15170" y1="620" x2="15170" y2="3820"/>
        <line x1="16820" y1="5370" x2="16820" y2="9620"/>
        <line x1="16670" y1="9620" x2="16670" y2="5370"/>
        <line x1="13370" y1="5370" x2="13370" y2="9620"/>
        <line x1="13170" y1="9620" x2="13170" y2="4020"/>
        <line x1="13370" y1="5370" x2="20120" y2="5370"/>
        <line x1="20120" y1="5220" x2="13370" y2="5220"/>
        <line x1="13370" y1="5220" x2="13370" y2="4020"/>
        <line x1="15320" y1="620" x2="15320" y2="3820"/>
        <line x1="12470" y1="620" x2="12470" y2="3820"/>
        <line x1="2820" y1="1870" x2="3970" y2="1870"/>
        <line x1="2820" y1="1870" x2="2820" y2="620"/>
        <line x1="3970" y1="1870" x2="3970" y2="3070"/>
        <line x1="2820" y1="2020" x2="3820" y2="2020"/>
        <line x1="2820" y1="2020" x2="2820" y2="3220"/>
        <line x1="3820" y1="2020" x2="3820" y2="3820"/>
        <line x1="370" y1="6270" x2="370" y2="9870"/>
        <line x1="370" y1="9870" x2="2570" y2="9870"/>
    </g>
</svg>
